<svg width="61" height="60" viewBox="0 0 61 60" fill="none" xmlns="http://www.w3.org/2000/svg">
<g clip-path="url(#clip0_72_1441)">
<path d="M56.9712 18.3881C57.0686 18.0914 57.1182 17.781 57.1182 17.4687V2.97C57.1182 1.3323 55.781 0 54.1374 0H35.9211C34.2775 0 32.9403 1.3323 32.9403 2.97V4.0132C29.0107 3.93445 24.9262 4.74996 21.3151 6.33363C18.009 7.77656 15.0528 9.81773 12.5206 12.3998H9.40625C9.17315 12.3998 8.9496 12.4924 8.78477 12.6573C8.61994 12.8221 8.52734 13.0456 8.52734 13.2787C8.52734 13.5119 8.61994 13.7354 8.78477 13.9002C8.9496 14.0651 9.17315 14.1577 9.40625 14.1577H21.6971C22.3714 14.1577 22.9201 14.7015 22.9201 15.3698V29.8684C22.9201 30.5368 22.3714 31.0807 21.6971 31.0807H20.0156C18.7583 31.0807 17.7354 32.1004 17.7354 33.3537V35.4009L12.3384 31.5117C11.9498 31.2306 11.4822 31.0798 11.0026 31.0808H3.48078C2.80648 31.0808 2.25781 30.537 2.25781 29.8685V15.37C2.25781 14.7015 2.80648 14.1578 3.48078 14.1578H5.30469C5.53779 14.1578 5.76134 14.0652 5.92617 13.9003C6.091 13.7355 6.18359 13.512 6.18359 13.2789C6.18359 13.0458 6.091 12.8222 5.92617 12.6574C5.76134 12.4926 5.53779 12.4 5.30469 12.4H3.48078C1.83723 12.4 0.5 13.7323 0.5 15.37V29.8685C0.5 31.5062 1.83723 32.8386 3.48078 32.8386H4.52152C4.72988 40.0038 7.61738 46.7098 12.7079 51.8003C17.9956 57.0879 25.0261 60 32.504 60C36.392 60 40.1555 59.2179 43.6905 57.6755C47.1046 56.1858 50.1471 54.06 52.7334 51.3573C52.8946 51.1889 52.9822 50.9634 52.9771 50.7303C52.972 50.4973 52.8745 50.2758 52.7061 50.1146C52.5377 49.9535 52.3122 49.8658 52.0791 49.8709C51.8461 49.8761 51.6246 49.9735 51.4634 50.142C49.5323 52.1599 47.3414 53.826 44.964 55.1129C43.847 53.6263 42.2079 51.8375 41.112 50.1231L41.3216 49.972C41.4112 49.9073 41.519 49.8726 41.6295 49.8729H49.1513C50.7949 49.8729 52.1321 48.5406 52.1321 46.9029V32.4043C52.1321 32.208 52.1124 32.0164 52.0757 31.8307C53.5863 30.0226 54.4137 27.7178 54.4137 25.2855C54.4033 23.572 53.9196 21.8947 53.0161 20.4387H54.1373C54.7313 20.4394 55.3118 20.2622 55.8041 19.9298C57.7291 23.6415 58.7422 27.7907 58.7422 32.004C58.7422 37.4295 57.1009 42.6356 53.9956 47.0598C53.9293 47.1543 53.8822 47.2609 53.8571 47.3735C53.832 47.4862 53.8293 47.6027 53.8492 47.7164C53.8691 47.8301 53.9113 47.9387 53.9732 48.0361C54.0351 48.1335 54.1156 48.2178 54.2101 48.2841C54.4723 48.4725 55.0363 48.548 55.4343 48.0696C58.7483 43.3481 60.5 37.7927 60.5 32.004C60.5 27.23 59.281 22.5321 56.9712 18.3881ZM21.6971 12.4H15.0629C17.1269 10.556 19.4334 9.07324 21.9097 7.98047L22.4973 8.6584C23.4836 9.95332 24.0993 11.8123 23.8974 13.3686C23.352 12.7738 22.5676 12.4 21.6971 12.4ZM42.167 54.4252C42.5872 54.937 42.9912 55.4298 43.3623 55.9109C40.0026 57.4386 36.3225 58.2422 32.504 58.2422C22.6697 58.2422 14.0833 52.8027 9.59117 44.7754C10.8303 43.7534 12.4265 42.5113 13.7018 42.6592C14.2222 42.7196 14.683 43.0238 15.1104 43.5893C16.1798 45.003 17.9845 45.2786 19.2488 45.3628C21.1367 45.2461 22.8191 44.2818 23.8694 42.7269C23.9357 42.6318 23.9826 42.5244 24.0072 42.4111C24.0319 42.2978 24.0338 42.1807 24.013 42.0666C23.9922 41.9525 23.949 41.8437 23.886 41.7464C23.8229 41.649 23.7412 41.5652 23.6456 41.4996C23.5499 41.4339 23.4423 41.3879 23.3288 41.3641C23.2153 41.3403 23.0982 41.3392 22.9842 41.3609C22.8703 41.3825 22.7618 41.4265 22.6649 41.4903C22.5681 41.5541 22.4848 41.6365 22.4199 41.7326C21.6646 42.8337 20.6671 43.4295 19.2856 43.6032C17.8508 43.4979 16.9936 43.1652 16.5124 42.529C15.7904 41.5739 14.913 41.0302 13.9045 40.913C12.043 40.6972 10.2121 42.0052 8.76758 43.1777C7.27648 40.0229 6.39629 36.5256 6.28039 32.8385H11.0025C11.114 32.8385 11.2205 32.8727 11.3105 32.9377L16.9886 37.0296C17.2574 37.2242 17.5806 37.329 17.9124 37.3293C18.1585 37.3293 18.4058 37.2714 18.6346 37.1543C18.8934 37.0229 19.1107 36.8222 19.2622 36.5747C19.4138 36.3271 19.4937 36.0424 19.493 35.7521V33.3537C19.493 33.0696 19.7274 32.8385 20.0155 32.8385H21.697C23.3405 32.8385 24.6778 31.5061 24.6778 29.8684V26.1176C25.7239 26.7627 27.3808 27.3354 28.7296 27.2987C30.215 27.2985 31.6654 26.8477 32.8891 26.0057C34.5196 24.8858 35.6423 23.1379 35.9694 21.21C36.0118 20.9597 36.0489 20.7019 36.0808 20.4386H37.6025C37.8905 20.4386 38.1248 20.6696 38.1248 20.9537V23.3522C38.1248 23.946 38.4538 24.4833 38.9832 24.7543C39.4299 24.9634 39.9743 25.0343 40.6291 24.6298L44.2471 22.0225C44.1073 23.3836 43.7412 24.8157 42.0741 26.4795C41.2912 27.2764 40.8418 28.3411 40.8179 29.4341H30.9349C29.2913 29.4341 27.9541 30.7665 27.9541 32.4042V32.7841C26.3224 33.4062 25.016 34.7791 24.4305 36.5086C24.3029 36.8857 24.1031 37.528 23.9175 38.1415C23.8493 38.3644 23.8725 38.6052 23.9819 38.8111C24.0913 39.0169 24.278 39.1708 24.5009 39.2389C24.8548 39.3383 25.3559 39.2157 25.5984 38.6555C25.723 38.2479 25.8938 37.6795 26.0956 37.0721C26.4341 36.0723 27.1034 35.2429 27.9542 34.7313V46.9027C27.9542 48.5404 29.2914 49.8727 30.935 49.8727H32.6165C32.9046 49.8727 33.1388 50.1038 33.1388 50.3878V52.7862C33.1388 53.38 33.4678 53.9171 33.9972 54.1883C34.2261 54.3055 34.4734 54.3633 34.7196 54.3633C35.0448 54.3633 35.3679 54.2623 35.6434 54.0638L39.6849 51.1513C40.426 52.3018 41.3079 53.379 42.167 54.4252ZM50.3745 46.9028C50.3745 47.5712 49.8259 48.115 49.1516 48.115H41.6298C41.147 48.115 40.685 48.264 40.2939 48.546L34.8969 52.4353V50.3879C34.8969 49.1346 33.8739 48.115 32.6168 48.115H30.9352C30.2609 48.115 29.7123 47.5711 29.7123 46.9028V32.4043C29.7123 31.7359 30.2609 31.192 30.9352 31.192H41.7909L41.7936 31.1923L41.7975 31.192H49.1517C49.826 31.192 50.3746 31.7359 50.3746 32.4043L50.3745 46.9028ZM52.6562 25.2915C52.6562 27.077 52.1175 28.7787 51.1262 30.182C50.5816 29.6996 49.8791 29.4336 49.1516 29.4342H42.5766C42.6001 28.7994 42.8673 28.1807 43.3222 27.7177C45.7975 25.2475 45.948 23.0584 46.0688 21.2995C46.0836 21.0834 46.0985 20.8759 46.1168 20.6753L46.3073 20.5379C46.397 20.4731 46.5049 20.4384 46.6155 20.4387H50.845C52.0026 21.7938 52.644 23.5068 52.6562 25.2915ZM54.1374 18.6809H46.6156C46.136 18.6798 45.6684 18.8307 45.2798 19.1118L44.7547 19.4902L44.7487 19.4944L39.8827 23.0011V20.9537C39.8827 19.7004 38.8598 18.6807 37.6026 18.6807H35.9211C35.2468 18.6807 34.6981 18.1369 34.6981 17.4686V14.1797C34.6981 13.9466 34.6055 13.723 34.4407 13.5582C34.2759 13.3934 34.0523 13.3008 33.8192 13.3008C33.5861 13.3008 33.3626 13.3934 33.1977 13.5582C33.0329 13.723 32.9403 13.9466 32.9403 14.1797V17.4686C32.9403 18.5367 33.5094 19.4746 34.361 19.9979C34.329 20.3052 34.2874 20.6115 34.2364 20.9162C33.9886 22.3778 33.1347 23.7047 31.8941 24.5568C29.7054 26.0973 26.7563 25.7084 24.6779 23.9882V16.0411C26.5637 13.554 25.6202 9.59801 23.6382 7.2907C26.4676 6.27586 29.7543 5.70387 32.9402 5.7709V10.0781C32.9402 10.3112 33.0328 10.5348 33.1976 10.6996C33.3624 10.8644 33.586 10.957 33.8191 10.957C34.0522 10.957 34.2758 10.8644 34.4406 10.6996C34.6054 10.5348 34.698 10.3112 34.698 10.0781V2.97C34.698 2.30156 35.2467 1.75781 35.921 1.75781H54.1373C54.8116 1.75781 55.3603 2.30168 55.3603 2.97V17.4686C55.3604 18.137 54.8117 18.6809 54.1374 18.6809Z" fill="#19304C"/>
<path d="M50.458 5.83043H45.9082V4.33594C45.9082 4.10284 45.8156 3.87928 45.6508 3.71446C45.4859 3.54963 45.2624 3.45703 45.0293 3.45703C44.7962 3.45703 44.5726 3.54963 44.4078 3.71446C44.243 3.87928 44.1504 4.10284 44.1504 4.33594V5.83043H39.6006C39.3675 5.83043 39.1439 5.92303 38.9791 6.08786C38.8143 6.25268 38.7217 6.47624 38.7217 6.70934C38.7217 6.94244 38.8143 7.16599 38.9791 7.33082C39.1439 7.49564 39.3675 7.58824 39.6006 7.58824H41.423C41.8385 9.43343 42.6655 11.1609 43.8422 12.6417C42.9382 13.504 41.8927 14.2044 40.7514 14.7123L39.5404 15.252C39.3564 15.3339 39.2061 15.4765 39.1147 15.656C39.0232 15.8355 38.9962 16.041 39.0382 16.238C39.0802 16.4351 39.1885 16.6117 39.3452 16.7384C39.5018 16.865 39.6972 16.934 39.8987 16.9338C40.0182 16.9338 40.1397 16.9093 40.2559 16.8575L41.4668 16.3179C42.7808 15.7334 43.9855 14.9292 45.0293 13.9398C46.073 14.9292 47.2778 15.7334 48.5918 16.3179L49.8027 16.8575C50.1116 16.9855 50.691 16.9496 50.9632 16.4125C51.058 16.1995 51.0645 15.9577 50.981 15.74C50.8975 15.5224 50.731 15.3468 50.5181 15.252L49.3072 14.7123C48.1658 14.2045 47.1203 13.5041 46.2164 12.6417C47.3931 11.1609 48.22 9.43342 48.6355 7.58824H50.4579C50.691 7.58826 50.9145 7.49567 51.0794 7.33086C51.2442 7.16604 51.3368 6.9425 51.3368 6.70939C51.3369 6.47629 51.2443 6.25273 51.0795 6.0879C50.9146 5.92306 50.6911 5.83045 50.458 5.83043ZM45.0293 11.3023C44.1972 10.1912 43.587 8.93022 43.2322 7.58824H46.8262C46.4715 8.93021 45.8613 10.1912 45.0293 11.3023ZM8.11522 28.7129C8.2232 28.7537 8.33816 28.7728 8.45352 28.7691C8.56888 28.7654 8.68239 28.739 8.78756 28.6915C8.89274 28.644 8.98751 28.5762 9.06649 28.492C9.14546 28.4078 9.20708 28.3089 9.24783 28.2009L10.0106 26.1798H15.1604L15.9312 28.2035C15.9946 28.37 16.1071 28.5134 16.2538 28.6145C16.4005 28.7157 16.5744 28.7698 16.7526 28.7699C16.895 28.7699 17.0353 28.7352 17.1614 28.669C17.2874 28.6027 17.3955 28.5069 17.4763 28.3896C17.5571 28.2723 17.6081 28.1372 17.6251 27.9958C17.6421 27.8544 17.6245 27.711 17.5738 27.578L13.6135 17.1797L13.6057 17.1596C13.5221 16.9541 13.3791 16.7782 13.195 16.6545C13.0108 16.5307 12.794 16.4648 12.5721 16.4651H12.5709C12.3448 16.4646 12.1239 16.5329 11.9376 16.6609C11.7512 16.7889 11.6082 16.9706 11.5275 17.1818L7.60322 27.5805C7.56248 27.6885 7.5434 27.8035 7.54708 27.9188C7.55076 28.0341 7.57712 28.1476 7.62466 28.2528C7.67221 28.3579 7.74 28.4527 7.82417 28.5317C7.90834 28.6106 8.00724 28.6722 8.11522 28.7129ZM12.5736 19.388L14.4909 24.422H10.6739L12.5736 19.388ZM46.7757 34.3359H42.6869C42.4538 34.3359 42.2303 34.4285 42.0655 34.5934C41.9006 34.7582 41.808 34.9817 41.808 35.2148C41.808 35.4479 41.9006 35.6715 42.0655 35.8363C42.2303 36.0012 42.4538 36.0938 42.6869 36.0938H43.8524V38.8477H40.3563C40.5668 38.4192 40.676 37.9481 40.6755 37.4707C40.6755 35.7422 39.2693 34.3359 37.5408 34.3359H35.0029C34.7698 34.3359 34.5463 34.4285 34.3815 34.5934C34.2166 34.7582 34.124 34.9817 34.124 35.2148C34.124 35.4479 34.2166 35.6715 34.3815 35.8363C34.5463 36.0012 34.7698 36.0938 35.0029 36.0938H37.5408C38.3 36.0938 38.9177 36.7114 38.9177 37.4707C38.9177 38.23 38.3 38.8477 37.5408 38.8477H34.7209C34.4878 38.8477 34.2642 38.9403 34.0994 39.1051C33.9346 39.2699 33.842 39.4935 33.842 39.7266C33.842 39.9597 33.9346 40.1832 34.0994 40.348C34.2642 40.5129 34.4878 40.6055 34.7209 40.6055H37.5408C38.3 40.6055 38.9177 41.2232 38.9177 41.9824C38.9177 42.7546 38.3129 43.3594 37.5408 43.3594C36.3265 43.3594 34.948 43.2225 33.9324 42.207C33.7676 42.0421 33.5441 41.9496 33.311 41.9496C33.0779 41.9496 32.8544 42.0421 32.6896 42.207C32.5247 42.3718 32.4322 42.5953 32.4322 42.8284C32.4322 43.0615 32.5247 43.285 32.6896 43.4498C34.1674 44.9277 36.0585 45.1172 37.5408 45.1172C39.2693 45.1172 40.6755 43.7109 40.6755 41.9824C40.6755 41.4887 40.5606 41.0214 40.3563 40.6055H43.8524V44.2383C43.8524 44.4714 43.945 44.6949 44.1098 44.8598C44.2746 45.0246 44.4982 45.1172 44.7313 45.1172C44.9644 45.1172 45.1879 45.0246 45.3527 44.8598C45.5176 44.6949 45.6102 44.4714 45.6102 44.2383V36.0938H46.7756C47.0087 36.0938 47.2323 36.0012 47.3971 35.8364C47.5619 35.6716 47.6546 35.448 47.6546 35.2149C47.6546 34.9818 47.562 34.7582 47.3972 34.5934C47.2324 34.4286 47.0088 34.336 46.7757 34.3359Z" fill="#A1C6DB"/>
</g>
<defs>
<clipPath id="clip0_72_1441">
<rect width="60" height="60" fill="white" transform="translate(0.5)"/>
</clipPath>
</defs>
</svg>
